<?xml version="1.0" encoding="utf-8" ?>
<svg xmlns="http://www.w3.org/2000/svg" xmlns:xlink="http://www.w3.org/1999/xlink" width="513" height="513">
	<path transform="matrix(0.499996 0.00192398 -0.00192398 0.499996 1.97009 0)" d="M330.88 1024L-0 1024L0 -0L1024 0L1024 1007.85L1024 1024L974.323 1024L747.179 1024L564.405 1024L483.742 1024L331.517 1024L330.88 1024Z"/>
	<path fill="#A90100" transform="matrix(0.499996 0.00192398 -0.00192398 0.499996 1.97009 0)" d="M631.576 401.81C638.126 401.362 644.71 401.443 651.272 401.453C653.746 401.457 657.089 401.103 659.414 401.885C655.094 404.319 650.521 404.615 645.689 404.437C642.681 403.657 639.592 403.405 636.5 403.263L636.253 402.875C634.663 402.66 633.127 402.21 631.576 401.81Z"/>
	<path fill="#FEFFFE" transform="matrix(0.499996 0.00192398 -0.00192398 0.499996 1.97009 0)" d="M561.88 373.603C567.451 373.404 571.163 376.336 575.634 379.309C577.417 380.495 579.54 381.707 581.132 383.135C582.004 383.918 582.516 384.926 583.096 385.921C585.003 389.19 588.237 391.594 590.517 394.648C581.549 389.18 574.962 380.686 565.646 375.787L561.88 373.603Z"/>
	<path fill="#FEFFFE" transform="matrix(0.499996 0.00192398 -0.00192398 0.499996 1.97009 0)" d="M568.89 360.771L586.795 369.331C588.649 370.276 591.565 371.775 592.25 373.876C591.389 374.331 590.63 374.391 589.67 374.457C582.568 374.941 573.927 365.12 568.89 360.771Z"/>
	<path fill="#F60100" transform="matrix(0.499996 0.00192398 -0.00192398 0.499996 1.97009 0)" d="M552.159 369.843C555.218 371.284 558.354 372.975 561.617 373.869L561.88 373.603L565.646 375.787L565.072 377.124C559.571 378.12 550.789 379.404 545.696 377.117C545.445 376.654 545.284 376.131 545.096 375.639L545.443 376.036C546.332 376.277 546.092 376.121 546.738 376.579L547.125 376.875L547.753 376.375L547.298 375.894C546.463 375.125 546.186 375.117 545.755 374C546.916 372.067 549.963 371.652 551.801 370.147L552.159 369.843Z"/>
	<path fill="#9F0101" transform="matrix(0.499996 0.00192398 -0.00192398 0.499996 1.97009 0)" d="M525.603 359.683C535.262 361.998 543.277 365.473 552.159 369.843L551.801 370.147C549.963 371.652 546.916 372.067 545.755 374C546.186 375.117 546.463 375.125 547.298 375.894L547.753 376.375L547.125 376.875L546.738 376.579C546.092 376.121 546.332 376.277 545.443 376.036L545.096 375.639C545.284 376.131 545.445 376.654 545.696 377.117C543.272 376.111 541.043 374.754 538.782 373.435C538.911 372.268 539.158 369.842 538.561 368.816C537.437 366.888 533.696 365.037 531.75 364.086C529.105 362.794 527.594 361.858 525.603 359.683Z"/>
	<defs>
		<linearGradient id="gradient_0" gradientUnits="userSpaceOnUse" x1="537.36584" y1="291.88058" x2="528.3847" y2="300.86865">
			<stop offset="0" stop-color="#D00300"/>
			<stop offset="1" stop-color="#830700"/>
		</linearGradient>
	</defs>
	<path fill="url(#gradient_0)" transform="matrix(0.499996 0.00192398 -0.00192398 0.499996 1.97009 0)" d="M539.725 302.253C535.761 300.243 532.085 297.427 528.391 294.955C520.419 289.619 512.719 284.152 505.258 278.129C512.557 281.598 519.52 286.01 526.42 290.211C530.467 292.675 536.118 295.619 539.203 299.19L550.394 306.482C554.16 308.961 558.969 311.923 560.856 316.153C553.234 312.444 546.846 306.773 539.725 302.253Z"/>
	<path fill="#F60100" transform="matrix(0.499996 0.00192398 -0.00192398 0.499996 1.97009 0)" d="M561.683 314.75L562.184 314.635C567.751 314.035 583.118 323.664 588.577 326.714L600.25 332.664L616.75 342.926C620.607 345.3 624.594 346.965 628.355 349.621C617.556 346.266 607.336 339.509 597.478 334.011L573.181 321.276C569.738 319.51 566.439 317.336 562.837 315.914C562.185 315.656 562.086 315.308 561.683 314.75Z"/>
	<path fill="#A90100" transform="matrix(0.499996 0.00192398 -0.00192398 0.499996 1.97009 0)" d="M435.924 289.75L436.481 289.65C438.598 289.738 442.858 292.411 444.913 293.431C464.864 303.33 484.32 315.017 503.047 327.071C505.82 328.856 508.907 330.058 511.397 332.25C508.191 332.461 502.56 328.241 499.616 326.627L470.75 310.417C467.392 308.405 464.336 305.913 460.979 303.919C452.723 299.013 443.965 295.078 435.924 289.75Z"/>
	<path fill="#F60100" transform="matrix(0.499996 0.00192398 -0.00192398 0.499996 1.97009 0)" d="M496.868 350.708C503.099 353.208 509.402 354.792 515.785 356.783C518.727 357.701 522.569 359.481 525.603 359.683C527.594 361.858 529.105 362.794 531.75 364.086C533.696 365.037 537.437 366.888 538.561 368.816C539.158 369.842 538.911 372.268 538.782 373.435C527.582 366.335 515.634 360.999 503.794 355.157L503.127 354.822L501 353.874C500.242 353.502 499.533 353.093 498.734 352.814C497.656 352.438 497.024 352.203 496.204 351.392L496.868 350.708Z"/>
	<defs>
		<linearGradient id="gradient_1" gradientUnits="userSpaceOnUse" x1="384.03583" y1="33.370697" x2="381.00247" y2="27.778076">
			<stop offset="0" stop-color="#F90800"/>
			<stop offset="1" stop-color="#CF1001"/>
		</linearGradient>
	</defs>
	<path fill="url(#gradient_1)" transform="matrix(0.499996 0.00192398 -0.00192398 0.499996 1.97009 0)" d="M359.381 39.1205C364.094 35.877 369.408 33.4105 374.59 31.008C392.83 22.5502 415.705 16.4566 435.843 17.8567C429.773 19.6692 422.61 19.323 416.284 20.5803C396.295 24.5529 375.551 32.5121 358.521 43.7703L358.747 42.5062L359.5 41.8775C359.836 40.7213 359.644 40.2669 359.381 39.1205Z"/>
	<path fill="#FA2806" transform="matrix(0.499996 0.00192398 -0.00192398 0.499996 1.97009 0)" d="M245.495 468.28C246.893 471.888 248.511 475.943 250.884 479.023C253.646 482.606 257.646 485.807 260.935 488.93C261.843 489.791 262.497 489.875 262.281 491.15C261.203 497.518 261.49 504.062 261.508 510.497C260.081 508.956 260.056 507.962 259.533 506C258.277 501.289 256.049 496.279 251.674 493.697C250.474 491.05 249.915 488.231 248.952 485.5C247.334 480.911 245.393 476.839 244.237 472.049C244.458 470.908 244.246 470.314 244.012 469.18L245.495 468.28Z"/>
	<path fill="#F60100" transform="matrix(0.499996 0.00192398 -0.00192398 0.499996 1.97009 0)" d="M205.891 924.43L205.41 925.421C203.361 926.18 201.778 925.051 199.715 925.301C197.372 925.585 195.134 926.601 192.833 927.115C190.55 927.626 188.185 927.751 185.896 928.25C182.065 929.085 177.772 930.913 174.171 932.446C169.556 934.412 165.138 936.937 160.621 939.122L127.551 955.577C121.713 958.559 115.44 962.655 109.237 964.586C117.156 959.615 125.344 955.764 133.546 951.372L169.857 931.339C176.298 927.869 183.294 924.711 189.247 920.414C190.433 919.558 191.229 918.457 192.02 917.243L192.308 916.79C195.439 919.612 199.991 924.95 204.493 924.655C205.163 924.611 205.3 924.561 205.891 924.43Z"/>
	<path fill="#FEFFFE" transform="matrix(0.499996 0.00192398 -0.00192398 0.499996 1.97009 0)" d="M511.571 394.919L530.189 395.027C533.311 395.036 536.808 394.73 539.888 395.144L533.994 402.75C532.548 404.783 531.126 408.299 528.483 408.926C524.016 409.986 516.51 408.122 511.89 407.5C511.365 403.352 511.442 399.089 511.571 394.919Z"/>
	<path fill="#F83600" transform="matrix(0.499996 0.00192398 -0.00192398 0.499996 1.97009 0)" d="M511.89 407.5C509.56 408.384 506.897 408.668 504.461 409.205C500.654 410.046 496.539 411.256 492.632 411.312C492.006 411.321 491.595 411.375 491.049 410.96C490.521 410.558 489.728 408.933 489.283 408.283L484.813 402.241C482.555 399.457 479.98 397.032 477.344 394.614L511.571 394.919C511.442 399.089 511.365 403.352 511.89 407.5Z"/>
	<path fill="#FEFFFE" transform="matrix(0.499996 0.00192398 -0.00192398 0.499996 1.97009 0)" d="M571.535 338.815C578.676 340.948 585.382 344.572 592.223 347.486C609.089 354.669 627.18 360.612 641.833 372.045L621.495 371.701C619.911 371.626 617.354 371.838 615.876 371.421C613.853 370.85 610.518 367.557 608.711 366.175L587.842 350.167L571.535 338.815Z"/>
	<path fill="#F60100" transform="matrix(0.499996 0.00192398 -0.00192398 0.499996 1.97009 0)" d="M244.012 469.18C239.706 461.773 236.946 453.258 233.433 445.435C225.789 428.413 217.337 411.574 211.498 393.821C208.163 383.683 205.911 372.971 203.532 362.566C201.82 355.081 199.512 346.519 199.277 338.846L245.495 468.28L244.012 469.18Z"/>
	<path fill="#F60100" transform="matrix(0.499996 0.00192398 -0.00192398 0.499996 1.97009 0)" d="M332.477 348.567L369.579 373.297L346.623 374.381L312.527 377.463C313.881 374.19 315.898 371.055 317.708 368.004C322.115 360.577 326.222 354.614 332.477 348.567Z"/>
	<path fill="#F60100" transform="matrix(0.499996 0.00192398 -0.00192398 0.499996 1.97009 0)" d="M358.521 43.7703C356.712 45.5238 354.082 46.872 351.969 48.3088C348.464 50.6924 344.966 53.3007 341.732 56.0367C323.166 71.7459 307.705 92.8417 298.161 115.245C293.811 115.682 289.648 117.059 285.35 117.732C276.895 119.056 267.031 119.384 258.496 118.829C243.528 117.856 229.245 114.584 215.033 110.01C210.884 108.675 206.544 107.546 202.5 105.942C179.194 96.7034 156.214 81.6208 139.7 62.6635C164.406 80.3825 192.954 96.4753 222.252 105.043C243.082 111.135 265.369 116.506 287.056 111.934C289.406 111.438 293.722 110.738 295.653 109.514C297.476 108.358 299.772 101.931 300.824 99.7035C304.573 91.767 309.474 84.0379 314.818 77.0803C326.436 61.9545 342.652 48.2867 359.381 39.1205C359.644 40.2669 359.836 40.7213 359.5 41.8775L358.747 42.5062L358.521 43.7703Z"/>
	<path fill="#F60100" transform="matrix(0.499996 0.00192398 -0.00192398 0.499996 1.97009 0)" d="M614.859 298.877L586.582 281.291C590.354 280.863 598.027 286.456 601.588 288.245L615.985 295.14L643.716 308.781C655.812 315.116 667.729 322.377 679.191 329.802C685.937 334.172 692.916 338.666 699.196 343.687C712.562 354.375 724.237 366.399 735.571 379.166C730.25 378.468 721.594 378.838 717.417 375.631L614.859 298.877Z"/>
	<path fill="#FEFFFE" transform="matrix(0.499996 0.00192398 -0.00192398 0.499996 1.97009 0)" d="M244.237 472.049C245.393 476.839 247.334 480.911 248.952 485.5C249.915 488.231 250.474 491.05 251.674 493.697C250.529 493.381 249.483 492.877 248.398 492.4C245.866 495.648 243.175 499.055 240.167 501.862C239.561 502.427 238.467 503.636 237.75 503.982C237.019 504.334 235.425 504.38 234.573 504.527C226.952 519.364 226.592 539.143 231.653 554.815C237.533 573.021 248.637 587.929 259.911 603.08L272.583 620.62C274.436 623.109 279.015 626.762 279.784 629.341C269.969 624.412 260.155 617.188 252.579 609.306C241.289 597.559 230.074 582.356 224.75 566.845C221.304 556.804 219.962 545.286 220.204 534.702C220.634 515.974 224.133 495.496 235.952 480.342C238.293 477.34 241.476 474.676 244.237 472.049Z"/>
	<path fill="#FA2806" transform="matrix(0.499996 0.00192398 -0.00192398 0.499996 1.97009 0)" d="M234.573 504.527C236.544 500.263 238.633 494.846 242.904 492.402C244.988 491.21 246.252 491.794 248.398 492.4C245.866 495.648 243.175 499.055 240.167 501.862C239.561 502.427 238.467 503.636 237.75 503.982C237.019 504.334 235.425 504.38 234.573 504.527Z"/>
	<path fill="#FEFFFE" transform="matrix(0.499996 0.00192398 -0.00192398 0.499996 1.97009 0)" d="M263.729 774.909C263.914 775.435 264.221 775.933 264.284 776.487C264.371 777.255 263.699 778.889 263.516 779.75C260.648 793.265 255.647 806.56 251.484 819.75L244.19 843.941L205.891 924.43C205.3 924.561 205.163 924.611 204.493 924.655C199.991 924.95 195.439 919.612 192.308 916.79C193.808 911.931 196.358 907.667 198.707 903.197L208.991 883.26L240.511 821L252.86 797.005C256.65 789.731 260.664 782.534 263.729 774.909Z"/>
	<path fill="#F60100" transform="matrix(0.499996 0.00192398 -0.00192398 0.499996 1.97009 0)" d="M162.264 109.856C182.654 129.614 211.766 137.333 239.5 133.98L256.241 131.177C259.378 130.632 262.519 129.811 265.724 129.899C271.174 130.051 276.157 132.126 281.21 133.866C285.885 135.476 290.518 136.86 295.063 138.829C282.245 143.233 270.264 149.04 257.868 154.413C249.141 158.195 239.144 161.448 231.223 166.71C242.864 168.471 253.521 171.635 264.875 174.637C269.158 175.769 273.494 176.227 277.594 178.048C268.447 179.266 258.651 184.509 251.003 189.513C244.461 193.794 239.032 198.564 233.335 203.87C209.782 225.806 193.09 253.927 181.738 283.934C179.614 289.549 178.238 295.613 176.296 301.334C171.55 315.31 166.997 329.121 163.929 343.582L163.757 343.302C162.544 339.266 163.155 333.059 163.454 328.942C164.665 312.265 167.436 296.22 172.065 280.129C180.123 251.953 191.446 226.42 208.799 202.695C213.903 195.718 219.356 188.639 225.818 182.849L226.493 182.251C224.027 183.399 221.47 184.733 218.75 185.071L218.121 185.136C212.124 185.799 205.692 189.143 200.67 192.362C185.941 201.805 175.17 214.763 164.499 228.386L157.974 237.25L157.723 237C160.83 229.236 166.087 221.51 170.75 214.609C174.056 209.715 177.064 204.706 180.699 200.028C189.847 188.255 202.195 177.725 214.556 169.504C221.84 164.659 230.334 161.278 237.425 156.124C235.334 155.768 232.443 156.802 230.25 156.927C228.662 157.018 227.142 156.588 225.53 156.725C209.3 158.101 194.214 162.96 180.043 170.939C180.29 170.496 180.356 170.318 180.765 169.92C182.717 168.02 185.741 166.65 188.02 165.134C199.607 157.425 209.696 150.868 223.963 149.683C207.524 145.26 193.328 137.654 179.794 127.406C173.425 122.584 167.053 117.151 162.626 110.423L162.264 109.856Z"/>
	<path fill="#F60100" transform="matrix(0.499996 0.00192398 -0.00192398 0.499996 1.97009 0)" d="M274.096 746.411L276.205 782.429C276.571 782.648 276.986 782.855 277.316 783.124L310.996 812.228L331.517 1024L330.88 1024C327.557 1013.38 326.146 1001.62 323.937 990.693L309.946 920.865L305.66 898.538C305.229 896.628 304.974 893.687 303.69 892.198L303.281 891.75C297.087 884.678 288.562 878.848 281.308 872.848L253.75 850.854C250.634 848.514 247.683 845.698 244.19 843.941L251.484 819.75C255.647 806.56 260.648 793.265 263.516 779.75C263.699 778.889 264.371 777.255 264.284 776.487C264.221 775.933 263.914 775.435 263.729 774.909C265.783 765.456 269.873 755.087 274.096 746.411Z"/>
	<path fill="#F60100" transform="matrix(0.499996 0.00192398 -0.00192398 0.499996 1.97009 0)" d="M418.301 372.454C415.273 372.982 410.064 372.023 406.912 371.814C406.053 371.757 404.242 371.876 403.478 371.58C402.966 371.382 402.202 370.791 401.75 370.464C394.415 365.155 390.334 358.476 385.593 350.926C367.561 322.203 356.115 288.251 350.253 254.995C357.132 261.317 364.93 266.704 372.313 272.374L421.91 307.75L440.247 319.035L480.857 343.191C486.326 344.931 491.8 347.934 496.865 350.617L496.868 350.708L496.204 351.392C497.024 352.203 497.656 352.438 498.734 352.814C499.533 353.093 500.242 353.502 501 353.874L503.127 354.822L502.293 355.467C505.749 356.905 508.55 359.124 511.758 360.993L532.37 372.636C536.648 374.957 540.578 377.303 545.225 378.871C539.574 379.253 533.893 379.735 528.226 379.547C524.77 379.432 521.254 378.665 517.816 378.916C514.052 379.201 510.054 378.78 506.265 378.68L482.819 377.769C461.172 376.606 439.758 376.015 418.301 372.454Z"/>
	<path fill="#A90100" transform="matrix(0.499996 0.00192398 -0.00192398 0.499996 1.97009 0)" d="M480.857 343.191C486.326 344.931 491.8 347.934 496.865 350.617L496.868 350.708L496.204 351.392C497.024 352.203 497.656 352.438 498.734 352.814C499.533 353.093 500.242 353.502 501 353.874L503.127 354.822L502.293 355.467C500.849 355.392 498.98 354.23 497.615 353.64C491.598 351.042 485.366 348.054 480.857 343.191Z"/>
	<path fill="#FEFFFE" transform="matrix(0.499996 0.00192398 -0.00192398 0.499996 1.97009 0)" d="M418.301 372.454L488.802 355.957L489.095 356.324C492.926 360.903 518.781 376.829 519.25 378.376L517.816 378.916C514.052 379.201 510.054 378.78 506.265 378.68L482.819 377.769C461.172 376.606 439.758 376.015 418.301 372.454Z"/>
	<path fill="#FEFFFE" transform="matrix(0.499996 0.00192398 -0.00192398 0.499996 1.97009 0)" d="M974.323 1024L931.651 1001.78L881.17 975.309L825.901 946.403C822.871 944.685 816.245 941.887 814.465 939.088L814.106 938.484C811.37 934.082 809.875 929.329 807.619 924.701L780.882 864.358L763.119 823.41L756.489 806.764L749.722 790.661C748.111 787.048 746.172 783.486 744.878 779.75C743.33 775.277 745.181 769.421 745.385 764.773C745.536 761.319 744.753 755.551 746.192 752.56L766.223 798.623L775.878 821.048L803.372 880.279L813.983 903C816.29 907.911 818.831 914.25 822.201 918.473C823.693 920.344 826.562 921.551 828.693 922.57L841.603 928.352L1024 1007.85L1024 1024L974.323 1024Z"/>
	<path fill="#F60100" transform="matrix(0.499996 0.00192398 -0.00192398 0.499996 1.97009 0)" d="M659.414 401.885C663.999 401.44 668.659 401.239 673.256 401.631C684.013 402.547 695.937 405.737 706.152 409.107C708.141 409.763 710.78 410.204 712.493 411.38C712.321 419.385 712.161 427.871 710.658 435.75C708.437 447.389 705.408 459.307 699.962 469.882C693.745 481.952 683.291 492.91 672.229 500.567C653.355 513.63 633.019 518.386 610.283 514.141C605.046 513.163 599.193 510.444 594.43 508.037C581.997 501.754 571.518 494.351 563.591 482.626C552.663 466.459 547.992 447.278 547.49 428C547.402 424.614 546.992 420.297 547.664 416.997C547.856 416.052 548.166 415.827 548.75 415.095C556.126 412.313 564.413 410.658 572.124 408.997C582.472 406.767 592.971 404.592 603.5 403.449C606.864 403.084 611.05 402.118 614.326 402.884L614.375 402.916L631.576 401.81C633.127 402.21 634.663 402.66 636.253 402.875L636.5 403.263C639.592 403.405 642.681 403.657 645.689 404.437C650.521 404.615 655.094 404.319 659.414 401.885Z"/>
	<path fill="#9F0101" transform="matrix(0.499996 0.00192398 -0.00192398 0.499996 1.97009 0)" d="M614.375 402.916L631.576 401.81C633.127 402.21 634.663 402.66 636.253 402.875L636.5 403.263C639.592 403.405 642.681 403.657 645.689 404.437C641.466 404.391 639.941 405.356 636.61 407.645C634.494 407.511 631.127 407.754 629.212 406.951C628.342 406.586 627.605 406.89 626.737 406.483C625.921 406.1 625.061 406.25 624.156 406.002C622.951 405.671 623.563 405.79 622.345 405.584L620.25 405.179C617.738 404.739 616.397 404.59 614.375 402.916Z"/>
	<path fill="#F60100" transform="matrix(0.499996 0.00192398 -0.00192398 0.499996 1.97009 0)" d="M744.598 746.029L746.192 752.56C744.753 755.551 745.536 761.319 745.385 764.773C745.181 769.421 743.33 775.277 744.878 779.75C746.172 783.486 748.111 787.048 749.722 790.661L756.489 806.764L763.119 823.41L780.882 864.358L807.619 924.701C809.875 929.329 811.37 934.082 814.106 938.484L814.465 939.088C816.245 941.887 822.871 944.685 825.901 946.403L881.17 975.309L931.651 1001.78L974.323 1024L747.179 1024L564.405 1024C565.646 1019.9 566.08 1015.41 566.876 1011.21L572.787 976.981C573.47 973.125 573.531 968.548 575.152 964.949C576.77 961.355 581.723 958.143 584.753 955.598L597.918 944.389L621.276 923.817L665.862 880.782L688.706 855.444L711.793 829.545C712.095 828.232 713.463 826.527 714.192 825.314C716.513 821.454 718.659 817.843 719.3 813.286C722.381 810.532 723.289 806.212 724.765 802.496C726.482 798.173 728.473 794.024 729.955 789.598L736.006 768.489C737.481 766.134 738.047 762.958 739.007 760.324L744.598 746.029Z"/>
	<path transform="matrix(0.499996 0.00192398 -0.00192398 0.499996 1.97009 0)" d="M711.793 829.545C713.978 834.276 712.258 844.504 712.019 849.838L710.502 880.5L707.053 953.265C706.809 958.672 706.03 964.023 705.982 969.432C705.969 970.798 705.701 972.666 706.131 973.921L722.409 952.478C726.07 947.784 729.448 942.788 733.781 938.648L733.711 939.311C733.088 946.657 735.964 955.731 737.167 963.07L747.179 1024L564.405 1024C565.646 1019.9 566.08 1015.41 566.876 1011.21L572.787 976.981C573.47 973.125 573.531 968.548 575.152 964.949C576.77 961.355 581.723 958.143 584.753 955.598L597.918 944.389L621.276 923.817L665.862 880.782L688.706 855.444L711.793 829.545Z"/>
	<path fill="#F60100" transform="matrix(0.499996 0.00192398 -0.00192398 0.499996 1.97009 0)" d="M760.772 521.533C760.977 518.173 762.801 515.504 763.615 512.298L770.468 481.487L775.561 452.13L781.829 403.856C782.424 397.102 783.524 390.879 783.456 384.029L763.585 354L736.496 320.513L696.242 276.993L678.5 260.526L654.421 238.501C650.798 235.239 647.65 231.715 643.612 228.911C645.994 231.797 648.714 234.034 651.397 236.61L668.257 253.56C685.841 272.476 702.591 291.537 715.997 313.749C721.476 322.829 726.17 332.663 730.673 342.263C734.414 350.24 738.348 358.014 741.174 366.393C739.665 364.556 738.79 362.503 737.556 360.494C736.055 358.05 734.15 355.817 732.238 353.691C707.017 325.651 677.374 302.323 647.338 279.75L632.64 268.347L568.75 223.916L505.577 182.417L457.145 153.13C451.518 149.776 445.325 146.992 439.916 143.336C446.268 144.716 452.788 144.864 459.248 145.459L494.707 148.945C508.12 150.464 521.955 151.661 535.17 154.316C557.066 158.716 577.96 165.23 599.164 172.063C595.574 168.423 588.754 166.055 584.263 163.668C565.872 153.893 546.95 144.54 527.452 137.149C524.665 136.092 521.732 135.436 518.919 134.443L479.548 121.942C470.656 119.467 461.577 116.304 452.385 115.184L451.581 115.089C455.26 113.564 459.463 112.918 463.345 112.053L489.306 107.445C512.963 104.183 536.786 102.229 560.694 102.968C579.618 103.552 598.028 106.41 616.609 109.74C634.778 112.997 652.592 116.831 670.25 122.275L670.347 121.75C666.046 119.727 661.682 118.791 657.259 117.187C631.444 107.827 604.67 100.976 577.846 95.2108C563.642 92.158 549.076 90.2929 534.652 88.8592C515.043 86.9102 495.764 85.7423 476.05 87.2841C460.321 88.5141 443.958 91.9746 428.698 95.8936C407.974 101.216 387.409 107.76 368.166 117.255C358.852 121.85 350.154 127.212 341.52 132.945C343.609 136.372 349.32 138.792 352.826 140.598C367.253 148.029 383.012 154.177 398.453 159.25C404.292 161.168 410.31 162.359 416.111 164.472C408.827 164.611 402.206 164.037 395 163.063L391.75 162.523C371.609 157.885 349.82 148.096 336.064 132.165C332.695 128.263 330.042 123.632 327.286 119.284C335.198 103.911 344.093 88.4078 354.749 74.7512C357.481 71.25 361.189 66.4429 364.846 64.0153C367.057 62.5472 369.914 61.6894 372.338 60.6088L390.957 52.8168L407.565 46.3302C438.574 35.5904 471.23 27.5178 503.862 23.7374C548.659 18.5477 594.402 17.4361 639.094 24.4065C657.847 27.3313 676.549 32.0744 694.658 37.7387C698.689 38.9994 702.531 40.7178 706.499 42.1486L740.429 55.081L777.25 71.0365C780.832 72.7464 785.312 74.2845 788.433 76.7435C779.611 73.9102 770.537 69.7524 761.523 67.8267C730.403 61.1786 698.136 62.7934 666.633 59.7654L717.5 88.0138L805.438 148.077C824.156 160.915 843.391 173.056 861.25 187.099C864.062 189.311 867.58 191.081 869.775 193.923C867.956 193.763 866.039 191.915 864.539 190.845L850.581 180.855L833.383 170.327C826.33 165.881 818.569 159.738 810.749 156.921C804.936 154.826 799.763 150.401 794.111 147.661C804.714 156.126 814.476 165.787 824.092 175.338L876.935 232.5L876.75 233.199C870.389 227.189 864.036 221.712 856.78 216.804C854.142 215.02 851.591 213.037 848.632 211.818C844.205 209.994 840.17 207.315 835.766 205.395C827.518 201.799 818.433 199.192 809.811 196.595L801.026 193.633L809.449 198.617C816.611 203.218 821.868 210.508 826.644 217.384C842.794 240.634 852.683 266.368 858.562 293.962L857.981 293.106C854.403 287.128 848.943 282.006 843.511 277.681C845.723 289.368 847.884 300.865 848.865 312.75C849.637 322.11 849.292 331.687 848.776 341.045C844.968 327.577 837.633 316.706 828.316 306.435C837.595 344.467 827.362 388.566 811.629 423.711L813.32 397.783C810.429 408.305 805.672 418.716 801.75 428.931L790.209 461.685L785.823 472.877C785.211 474.414 783.978 476.711 784.048 478.356L784.139 478.887C780.999 483.998 777.791 489.723 776.171 495.5L776.5 496.245L777.75 495.947C786.222 501.566 790.458 514.337 792.842 523.62L792.25 524.755L789.064 524.762C787.568 518.276 784.149 510.402 779.868 505.25C778.438 503.529 776.242 501.941 775.226 499.96L774.879 499.25C774.162 499.319 773.116 502.138 772.745 502.923L767.667 514.261C767.011 515.919 766.269 518.994 764.75 519.908L763.75 518.476C762.104 518.898 761.713 520.162 760.772 521.533Z"/>
	<path fill="#FEFFFE" transform="matrix(0.499996 0.00192398 -0.00192398 0.499996 1.97009 0)" d="M509.042 430.799C511.965 430.651 514.748 430.58 517.671 430.839C520.695 434.358 524.18 438.105 528.849 439.301C529.509 439.47 531.896 439.65 532.3 439.956C532.891 440.405 534.852 448.144 535.253 449.397C539.354 462.205 543.64 474.865 550.35 486.603C560.406 504.193 576.838 518.717 596.059 525.365C604.126 528.155 613.104 529.567 621.584 530.214C645.444 532.036 669.637 522.904 687.44 507.216C699.52 496.57 709.369 482.77 716.129 468.175C718.16 463.79 719.81 457.299 722.626 453.666C723.844 454.243 724.393 455.552 724.858 456.75C726.544 461.099 727.679 465.898 729.121 470.374C734.987 488.583 738.694 507.316 734.692 526.416C733.157 533.741 730.403 540.782 727.62 547.707L720.295 565.072C719.651 566.666 718.389 568.941 718.173 570.617C718.239 571.877 717.972 573.085 717.452 574.23L717.125 574.875L718.5 575L719.003 574.125L720.003 572.003C721.133 569.707 722.484 566.812 724.623 565.395C725.741 563.37 726.789 561.324 728.206 559.489C725.959 573.324 724.506 587.236 720.155 600.621L723.359 602.466C732.795 588.111 740.556 572.861 747.039 556.955L760.772 521.533C761.713 520.162 762.104 518.898 763.75 518.476L764.75 519.908C766.269 518.994 767.011 515.919 767.667 514.261L772.745 502.923C773.116 502.138 774.162 499.319 774.879 499.25L775.226 499.96C776.242 501.941 778.438 503.529 779.868 505.25C784.149 510.402 787.568 518.276 789.064 524.762L792.25 524.755L792.842 523.62C790.458 514.337 786.222 501.566 777.75 495.947L776.5 496.245L776.171 495.5C777.791 489.723 780.999 483.998 784.139 478.887C788.709 484.479 793.171 490.863 796.055 497.52C802.431 512.24 804.397 531.22 802.724 547.138C799.703 575.898 780.925 600.476 758.98 618.023C749.851 625.322 733.234 635.599 721 633.967C717.887 633.552 714.924 631.23 712.342 629.561L697.245 698.037C706.724 704.137 717.206 709.609 727.162 714.923L739.906 721.75C742.085 722.9 744.945 724.007 746.679 725.709L744.598 746.029L739.007 760.324C738.047 762.958 737.481 766.134 736.006 768.489L729.955 789.598C728.473 794.024 726.482 798.173 724.765 802.496C723.289 806.212 722.381 810.532 719.3 813.286C718.659 817.843 716.513 821.454 714.192 825.314C713.463 826.527 712.095 828.232 711.793 829.545L688.706 855.444L665.862 880.782L621.276 923.817L597.918 944.389L584.753 955.598C581.723 958.143 576.77 961.355 575.152 964.949C573.531 968.548 573.47 973.125 572.787 976.981L566.876 1011.21C566.08 1015.41 565.646 1019.9 564.405 1024L483.742 1024L331.517 1024L310.996 812.228L277.316 783.124C276.986 782.855 276.571 782.648 276.205 782.429L274.096 746.411C275.31 738.643 274.545 729.688 274.598 721.801C277.666 718.782 282.244 716.936 286.039 714.981L306.826 704.362C310.99 702.215 314.902 699.543 319.222 697.729L319.789 697.499C317.867 692.357 316.852 686.864 315.719 681.504L310.624 654.263C309.138 645.704 307.232 637.174 306.399 628.517C300.523 632.698 292.503 633.884 285.426 632.565C283.454 632.197 281.438 630.514 279.803 629.395L279.784 629.341C279.015 626.762 274.436 623.109 272.583 620.62L259.911 603.08C248.637 587.929 237.533 573.021 231.653 554.815C226.592 539.143 226.952 519.364 234.573 504.527C235.425 504.38 237.019 504.334 237.75 503.982C238.467 503.636 239.561 502.427 240.167 501.862C243.175 499.055 245.866 495.648 248.398 492.4C249.483 492.877 250.529 493.381 251.674 493.697C256.049 496.279 258.277 501.289 259.533 506C260.056 507.962 260.081 508.956 261.508 510.497C262.278 517.199 262.089 523.985 262.9 530.732C265.023 548.384 269.749 566.992 278.355 582.672C283.908 592.789 290.896 601.833 297.867 610.984C292.366 593.633 289.656 575.265 288.151 557.206C290.994 561.576 292.429 567.924 294.14 572.856L301.584 592.75C301.545 589.042 299.095 584.067 297.949 580.389L290.44 554.431C289.429 550.633 288.125 546.902 287.454 543.021C284.469 525.757 284.964 508.624 287.241 491.331C289.554 473.765 293.583 457.083 301.887 441.287C305.056 448.147 307.148 455.42 310.177 462.312C319.258 482.975 333.297 500.964 352.257 513.438C370.834 525.66 393.566 531.905 415.635 527.337C435.368 523.252 454.601 509.344 465.946 492.749C472.358 483.369 477.685 472.095 481.944 461.592L486.25 449.949C487.184 447.095 487.694 443.189 489.479 440.756C490.727 439.054 493.197 438.082 495 437.067C497.998 435.379 501.175 432.849 504.398 431.733C505.858 431.227 507.519 431.045 509.042 430.799Z"/>
	<path fill="#4F4E4C" transform="matrix(0.499996 0.00192398 -0.00192398 0.499996 1.97009 0)" d="M720.155 600.621L723.359 602.466C721.348 606.183 718.591 609.78 715.826 612.97L720.155 600.621Z"/>
	<path fill="#12130B" transform="matrix(0.499996 0.00192398 -0.00192398 0.499996 1.97009 0)" d="M718.173 570.617C718.239 571.877 717.972 573.085 717.452 574.23L717.125 574.875L718.5 575L719.003 574.125L720.003 572.003C721.133 569.707 722.484 566.812 724.623 565.395C719.624 576.432 712.929 587.731 705.75 597.468L705.522 597L718.173 570.617Z"/>
	<path fill="#F83600" transform="matrix(0.499996 0.00192398 -0.00192398 0.499996 1.97009 0)" d="M792.842 523.62C793.398 528.725 793.861 533.931 793.4 539.062C791.832 556.527 783.5 571.492 772.75 584.941L767.75 590.285L767.53 590C772.871 583.796 778.808 575.976 782.694 568.774C784.293 565.811 785.252 562.34 786.34 559.162C789.358 550.343 791.332 542.903 790.568 533.42L789.064 524.762L792.25 524.755L792.842 523.62Z"/>
	<path fill="#A90100" transform="matrix(0.499996 0.00192398 -0.00192398 0.499996 1.97009 0)" d="M490.59 600.48C494.511 600.874 498.168 600.357 502 600.567C505.048 600.734 507.827 601.636 510.954 601.595C515.111 601.542 519.21 600.987 523.382 601.012C523.948 601.015 525.691 600.84 526.171 601.043C527.207 601.482 529.226 604 530.141 604.856L540.988 614.662L557.31 628.864C564.226 635.013 571.106 641.44 578.681 646.778C575.573 647.069 572.21 647.716 569.115 647.641C563.39 647.601 557.28 645.45 551.954 643.402C549.051 642.285 546.154 640.876 543.067 640.384C535.245 639.136 526.968 639.555 519.074 639.613L495.25 639.605L485.367 662.507L470.381 663.041C469.388 663.07 466.997 663.45 466.124 663.165C465.015 662.803 463.521 661.705 462.5 661.083C459.518 659.265 456.731 657.039 453.673 655.367C448.005 652.269 442.146 649.983 436.697 646.39L444.387 639.677L487.958 602.862C488.951 602.088 489.744 601.405 490.59 600.48Z"/>
	<path transform="matrix(0.499996 0.00192398 -0.00192398 0.499996 1.97009 0)" d="M452.735 641.708L468.215 635.945C474.308 633.52 480.677 630.66 487.188 629.674C494.959 628.496 503.344 629.025 511.195 628.996C518.382 628.97 524.878 628.339 531.623 631.337L543.828 636.718L554.096 640.25C557.358 641.525 560.404 643.453 563.933 643.841C566.33 644.104 567.642 645.915 569.115 647.641C563.39 647.601 557.28 645.45 551.954 643.402C549.051 642.285 546.154 640.876 543.067 640.384C535.245 639.136 526.968 639.555 519.074 639.613L495.25 639.605C491.223 638.573 486.702 638.977 482.571 638.993C473.656 639.028 465.195 638.743 456.539 641.25C455.416 641.575 453.625 642.496 452.735 641.708Z"/>
	<path fill="#9F0101" transform="matrix(0.499996 0.00192398 -0.00192398 0.499996 1.97009 0)" d="M452.735 641.708C453.625 642.496 455.416 641.575 456.539 641.25C465.195 638.743 473.656 639.028 482.571 638.993C486.702 638.977 491.223 638.573 495.25 639.605L485.367 662.507L470.381 663.041C469.388 663.07 466.997 663.45 466.124 663.165C465.015 662.803 463.521 661.705 462.5 661.083C459.518 659.265 456.731 657.039 453.673 655.367C448.005 652.269 442.146 649.983 436.697 646.39L444.387 639.677L444.688 640.616L440 644.75C441.123 644.975 440.973 645.185 442 644.5L442.458 644.486C443.571 644.445 444.217 644.222 445.25 644L446.752 643.875L446.5 643.5L443.884 643.366L443.5 642.75L444.25 641.755C445.95 643.115 447.175 642.753 449.255 642.75L450 642.255L450.569 642.28C451.423 642.277 451.474 642.042 452.186 641.804L452.735 641.708Z"/>
	<path transform="matrix(0.499996 0.00192398 -0.00192398 0.499996 1.97009 0)" d="M719.3 813.286C719.617 795.693 719.05 778.152 714.067 761.17C710.944 750.529 706.503 740.56 696.326 735.014C698.928 738.606 702.999 741.66 704.74 745.734C708.225 753.889 711.34 762.197 710.223 771.305L709.32 777.169C705.453 794.134 694.363 805.938 682 817.461C677.67 821.497 673.916 825.315 668.881 828.503C670.218 822.79 670.775 816.814 671.528 811L675.142 783.616L681.86 730.326C682.533 723.833 683.753 717.131 683.729 710.593L683.721 709.897L692.093 703.764C697.013 706.195 701.28 709.863 705.986 712.669L728.794 725.359C732.56 727.589 736.308 729.728 739.531 732.72C739.658 737.444 738.917 742.293 738.404 746.984L736.006 768.489L729.955 789.598C728.473 794.024 726.482 798.173 724.765 802.496C723.289 806.212 722.381 810.532 719.3 813.286Z"/>
	<path transform="matrix(0.499996 0.00192398 -0.00192398 0.499996 1.97009 0)" d="M306.399 628.517L307.031 627.858C308.846 630.298 309.828 634.126 310.875 636.999C314.507 646.964 317.221 657.29 320.05 667.5L324.729 684.749C325.853 688.464 327.22 692.663 329.633 695.756C333.523 700.741 339.981 704.806 344.769 709.003L411.132 765.466L421.141 774.205C422.886 775.734 425.203 777.418 426.441 779.388C429.358 782.596 434.58 785.432 438.136 788.114C443.234 791.959 448.239 796.798 453.726 800.004L513.188 800.004L542.567 800.116C547.121 800.129 552.334 800.664 556.776 799.889C561.25 799.108 566.153 795.32 570 793.007L605.5 770.01L638.657 749.009L605.5 780.964C579.468 803.698 551.455 824.284 523.317 844.311L488.902 867.867L482.029 872.855C481.795 873.026 480.076 874.075 479.954 874.284C479.563 874.959 479.846 879.7 479.836 880.72L482.075 989.21L482.863 1013.05C483.027 1016.7 482.813 1020.45 483.742 1024L331.517 1024L310.996 812.228L277.316 783.124C276.986 782.855 276.571 782.648 276.205 782.429L274.096 746.411C275.31 738.643 274.545 729.688 274.598 721.801C277.666 718.782 282.244 716.936 286.039 714.981L306.826 704.362C310.99 702.215 314.902 699.543 319.222 697.729L319.789 697.499C317.867 692.357 316.852 686.864 315.719 681.504L310.624 654.263C309.138 645.704 307.232 637.174 306.399 628.517Z"/>
	<path fill="#FEFFFE" transform="matrix(0.499996 0.00192398 -0.00192398 0.499996 1.97009 0)" d="M306.399 628.517L307.031 627.858C308.846 630.298 309.828 634.126 310.875 636.999C314.507 646.964 317.221 657.29 320.05 667.5L324.729 684.749C325.853 688.464 327.22 692.663 329.633 695.756C333.523 700.741 339.981 704.806 344.769 709.003L411.132 765.466L421.141 774.205C422.886 775.734 425.203 777.418 426.441 779.388L360.182 731.849L337.947 713.578C334.341 710.35 331.132 706.247 327.127 703.55C313.567 713.431 296.813 718.648 282.227 726.888C281.813 745.474 281.12 764.897 277.316 783.124C276.986 782.855 276.571 782.648 276.205 782.429L274.096 746.411C275.31 738.643 274.545 729.688 274.598 721.801C277.666 718.782 282.244 716.936 286.039 714.981L306.826 704.362C310.99 702.215 314.902 699.543 319.222 697.729L319.789 697.499C317.867 692.357 316.852 686.864 315.719 681.504L310.624 654.263C309.138 645.704 307.232 637.174 306.399 628.517Z"/>
	<path fill="#F83600" transform="matrix(0.499996 0.00192398 -0.00192398 0.499996 1.97009 0)" d="M261.508 510.497C262.278 517.199 262.089 523.985 262.9 530.732C265.023 548.384 269.749 566.992 278.355 582.672C283.908 592.789 290.896 601.833 297.867 610.984C292.366 593.633 289.656 575.265 288.151 557.206C290.994 561.576 292.429 567.924 294.14 572.856L301.584 592.75C301.545 589.042 299.095 584.067 297.949 580.389L290.44 554.431C289.429 550.633 288.125 546.902 287.454 543.021C284.469 525.757 284.964 508.624 287.241 491.331C289.554 473.765 293.583 457.083 301.887 441.287C305.056 448.147 307.148 455.42 310.177 462.312C319.258 482.975 333.297 500.964 352.257 513.438C370.834 525.66 393.566 531.905 415.635 527.337C435.368 523.252 454.601 509.344 465.946 492.749C472.358 483.369 477.685 472.095 481.944 461.592L486.25 449.949C487.184 447.095 487.694 443.189 489.479 440.756C490.727 439.054 493.197 438.082 495 437.067C497.998 435.379 501.175 432.849 504.398 431.733C505.858 431.227 507.519 431.045 509.042 430.799L505.516 476.425C505.08 481.268 505.226 488.349 503.531 492.801C502.578 495.303 500.418 497.681 499.039 500C497.656 502.328 496.639 505.082 495.429 507.536L510.069 523.837L510.636 523.44C514.75 520.609 519.093 518.636 524.241 519.597C531.463 520.945 538.756 529.027 542.545 534.99C545.196 539.162 551.132 549.162 550.046 554.044L549.675 555.25C545.898 557.26 542.511 559.512 539.074 562.057C534.833 560.605 530.808 557.277 526.454 556.56C524.171 556.185 522.078 556.652 519.824 556.908C515.326 557.417 509.797 561.716 507.057 565.156C505.161 567.537 504.74 570.287 504.222 573.198C503.057 579.754 502.693 586.53 502.202 593.165C502.123 594.225 502.254 597.005 501.866 597.75C501.369 598.706 499.794 599.424 498.75 599.543L491.068 599.619L490.59 600.48C489.744 601.405 488.951 602.088 487.958 602.862L444.387 639.677L436.697 646.39C442.146 649.983 448.005 652.269 453.673 655.367C456.731 657.039 459.518 659.265 462.5 661.083C463.521 661.705 465.015 662.803 466.124 663.165C466.997 663.45 469.388 663.07 470.381 663.041L485.367 662.507C498.006 663.323 510.737 662.73 523.406 663.042C524.533 663.07 528.157 662.642 529.086 663.022C530.095 663.436 532.275 666.131 533.04 667.008L561.631 703.08C550.623 700.393 539.973 696.233 528.844 693.919C513.496 690.727 496.75 692.473 483.287 700.684L473.537 706.287C479.008 727.063 488.869 747.081 498.332 766.316C503.593 777.012 509.93 788.566 513.188 800.004L453.726 800.004C448.239 796.798 443.234 791.959 438.136 788.114C434.58 785.432 429.358 782.596 426.441 779.388C425.203 777.418 422.886 775.734 421.141 774.205L411.132 765.466L344.769 709.003C339.981 704.806 333.523 700.741 329.633 695.756C327.22 692.663 325.853 688.464 324.729 684.749L320.05 667.5C317.221 657.29 314.507 646.964 310.875 636.999C309.828 634.126 308.846 630.298 307.031 627.858L306.399 628.517C300.523 632.698 292.503 633.884 285.426 632.565C283.454 632.197 281.438 630.514 279.803 629.395L279.784 629.341C279.015 626.762 274.436 623.109 272.583 620.62L259.911 603.08C248.637 587.929 237.533 573.021 231.653 554.815C226.592 539.143 226.952 519.364 234.573 504.527C235.425 504.38 237.019 504.334 237.75 503.982C238.467 503.636 239.561 502.427 240.167 501.862C243.175 499.055 245.866 495.648 248.398 492.4C249.483 492.877 250.529 493.381 251.674 493.697C256.049 496.279 258.277 501.289 259.533 506C260.056 507.962 260.081 508.956 261.508 510.497Z"/>
	<path fill="#F60100" transform="matrix(0.499996 0.00192398 -0.00192398 0.499996 1.97009 0)" d="M472.54 555.832L471.134 554.879C470.009 552.346 469.672 550.188 470.511 547.5C471.714 543.648 473.123 538.78 475.108 535.312C478.388 529.58 483.789 525.573 489.571 522.667C488.276 526.739 486.572 531.899 486.379 536.182C486.319 537.496 486.573 537.472 487.481 538.441C483.378 538.479 479.234 540.749 476.435 543.727C473.132 547.241 473.564 551.413 472.54 555.832Z"/>
	<path transform="matrix(0.499996 0.00192398 -0.00192398 0.499996 1.97009 0)" d="M523.644 539.25C524.776 538.966 526.085 538.87 527.25 538.916C530.554 539.049 533.529 541.815 535.517 544.25C536.896 545.94 538.593 548.301 538.204 550.621C537.829 552.86 535.983 554.578 534.25 555.86C533.276 555.949 532.219 556.045 531.25 555.879C526.155 555.008 522.834 551.616 520.14 547.512C519.297 546.229 518.985 544.802 519.422 543.3C520.039 541.177 521.792 540.169 523.644 539.25Z"/>
	<path transform="matrix(0.499996 0.00192398 -0.00192398 0.499996 1.97009 0)" d="M487.481 538.441C490.148 539.683 492.074 541.136 493.089 544.014C493.507 545.2 493.801 547.254 493.187 548.39C492.306 550.021 483.359 556.339 481.414 556.811C479.886 557.182 477.569 557.231 476 556.929C474.801 556.698 473.728 555.866 472.54 555.832C473.564 551.413 473.132 547.241 476.435 543.727C479.234 540.749 483.378 538.479 487.481 538.441Z"/>
</svg>
